<?xml version="1.0" encoding="UTF-8" standalone="no"?>
<!DOCTYPE svg PUBLIC "-//W3C//DTD SVG 1.0//EN" "http://www.w3.org/TR/2001/REC-SVG-20010904/DTD/svg10.dtd">
<!-- Created with Inkscape (http://www.inkscape.org/) -->
<svg
   xmlns:svg="http://www.w3.org/2000/svg"
   xmlns="http://www.w3.org/2000/svg"
   version="1.0"
   width="800"
   height="500"
   id="svg2">
  <defs
     id="defs4" />
  <g
     id="layer1">
    <g
       transform="matrix(2.1311124,0,0,1.9802929,50.562522,59.002525)"
       id="g3143"
       style="fill:#848484;fill-opacity:1">
      <path
         d="M 220.0625,241.09375 L 123.96875,242.09375 L 152.59375,334.40625 L 199.03125,333.90625 L 189.84375,299.78125 L 231.9375,300.28125 L 227.09375,278.71875 L 185.53125,279.21875 L 180.65625,265.6875 L 224.40625,264.6875 L 220.0625,241.09375 z M 437.90625,241.59375 L 435.46875,293.28125 L 397.15625,242.09375 L 344.78125,242.09375 L 349.625,334.40625 L 377.71875,334.40625 L 375.5625,291.25 L 412.8125,334.40625 L 462.46875,334.40625 L 467.3125,241.59375 L 437.90625,241.59375 z M 590.03125,241.90625 L 484.53125,242.3125 L 477.03125,334.40625 L 576.90625,335.40625 C 576.90627,335.40626 589.31796,332.4045 590.9375,323.375 L 603.375,263.65625 C 603.375,263.65625 608.38595,251.43739 590.03125,241.90625 z M 233.5625,242.09375 L 250.84375,334.90625 L 336.6875,334.90625 L 336.125,315.34375 L 294.5625,314.84375 L 290.78125,301.28125 L 332.90625,301.28125 L 332.375,280.21875 L 288.625,280.71875 L 285.40625,265.1875 L 330.75,265.1875 L 329.65625,242.59375 L 233.5625,242.09375 z M 615.25,242.09375 L 609.84375,265.6875 L 634.6875,265.6875 L 617.40625,334.40625 L 663.8125,334.90625 L 687.03125,266.1875 L 715.65625,266.6875 L 724.8125,242.59375 L 615.25,242.09375 z M 546.71875,265.6875 C 548.83595,265.67966 550.58652,265.6875 551.53125,265.6875 C 555.31016,265.6875 555.84375,272.68749 555.84375,272.6875 C 555.84375,272.6875 550.44609,300.28628 549.90625,308.3125 C 549.3664,316.33873 543.96877,314.84375 543.96875,314.84375 L 521.84375,314.84375 L 529.9375,266.1875 C 530.74726,265.81128 540.36714,265.71101 546.71875,265.6875 z"
         transform="matrix(0.4692385,0,0,0.5049758,-23.725882,-29.794848)"
         id="path2228"
         style="fill:#848484;fill-opacity:1;fill-rule:evenodd;stroke:#000000;stroke-width:0;stroke-linecap:butt;stroke-linejoin:miter;stroke-miterlimit:4;stroke-dasharray:none;stroke-opacity:1" />
    </g>
    <path
       d="M 750.55859,53.810916 L 434.42138,225.07165 L 668.91034,225.07165 L 750.55859,180.8491 L 750.55859,53.810916 z M 199.26645,352.48513 L 42.563093,437.3649 L 277.05205,437.3649 L 433.75541,352.48513 L 199.26645,352.48513 z"
       id="path3667"
       style="opacity:1;fill:#73b121;fill-opacity:1;fill-rule:evenodd;stroke:none;stroke-width:55;stroke-linecap:butt;stroke-linejoin:miter;stroke-miterlimit:4;stroke-dasharray:none;stroke-opacity:1" />
    <path
       d="M 750.55859,187.66701 L 681.49723,225.07165 L 736.90615,225.07165 L 750.55859,217.6908 L 750.55859,187.66701 z M 446.34229,352.48513 L 289.63893,437.3649 L 345.11445,437.3649 L 501.75121,352.48513 L 446.34229,352.48513 z"
       id="path3665"
       style="opacity:1;fill:#006b52;fill-opacity:1;fill-rule:evenodd;stroke:none;stroke-width:55;stroke-linecap:butt;stroke-linejoin:miter;stroke-miterlimit:4;stroke-dasharray:none;stroke-opacity:1" />
  </g>
</svg>
