<svg viewBox="0 0 348 282" xmlns="http://www.w3.org/2000/svg" fill="none">
  <path d="M21.434,166.61 L325.592,166.61 L325.592,118.627 L21.434,118.627 L21.434,166.61 Z M264.286,209.51 C264.286,209.51 225.031,245.427 173.512,258.389 C121.995,245.427 82.758,209.51 82.758,209.51 C94.455,202.49 98.401,193.428 99.717,187.815 L247.314,187.815 C248.639,193.428 252.574,202.49 264.286,209.51 Z M82.418,66.182 C82.418,66.182 126.646,68.508 173.512,33.59 C220.38,68.508 264.605,66.182 264.605,66.182 C250.265,80.77 247.878,92.41 247.587,97.42 L99.43,97.42 C99.145,92.41 96.765,80.77 82.418,66.182 Z M347.024,97.42 L270.786,97.42 C271.23,85.284 286.885,79.482 286.885,79.482 L286.885,48.223 C201.754,43.57 173.512,0.666 173.512,0.666 C173.512,0.666 145.271,43.57 60.143,48.223 L60.143,79.482 C60.143,79.482 75.794,85.284 76.241,97.42 L0,97.42 L0,187.815 L75.986,187.815 C71.643,203.399 49.993,207.347 49.993,207.347 C112.019,271.697 173.512,282 173.512,282 C173.512,282 235.014,271.697 297.031,207.347 C297.031,207.347 275.376,203.399 271.047,187.815 L347.024,187.815 L347.024,97.42 Z" fill="#1A1A1A"/>
</svg>
