<svg xmlns="http://www.w3.org/2000/svg" viewBox="0 0 24 24" fill="none">
  <path fill="#1A1A1A" d="M12 0C5.373 0 0 5.373 0 12s5.373 12 12 12 12-5.373 12-12S18.627 0 12 0zm0 1.2c2.387 0 4.593.745 6.42 2.013L12 10.8 5.58 3.213A10.74 10.74 0 0 1 12 1.2zM1.2 12c0-3.34 1.533-6.32 3.933-8.28L11.4 12l-6.267 8.28A10.74 10.74 0 0 1 1.2 12zm10.8 10.8a10.74 10.74 0 0 1-6.42-2.013L12 13.2l6.42 7.587A10.74 10.74 0 0 1 12 22.8zm6.867-2.52L12.6 12l6.267-8.28A10.74 10.74 0 0 1 22.8 12a10.74 10.74 0 0 1-3.933 8.28z"/>
  <circle cx="12" cy="12" r="11.4" stroke="#1A1A1A" stroke-width="1.2" fill="none"/>
</svg>
