<?xml version="1.0" encoding="UTF-8" standalone="no"?>
<svg
   xmlns:dc="http://purl.org/dc/elements/1.1/"
   xmlns:cc="http://creativecommons.org/ns#"
   xmlns:rdf="http://www.w3.org/1999/02/22-rdf-syntax-ns#"
   xmlns:svg="http://www.w3.org/2000/svg"
   xmlns="http://www.w3.org/2000/svg"
   xmlns:sodipodi="http://sodipodi.sourceforge.net/DTD/sodipodi-0.dtd"
   xmlns:inkscape="http://www.inkscape.org/namespaces/inkscape"
   width="199.39999pt"
   height="153.3109pt"
   viewBox="0 0 199.4 153.3109"
   version="1.1"
   id="svg2"
   inkscape:version="0.91 r13725"
   sodipodi:docname="Triumph Motorcycles logo and claim 2015.svg">
  <metadata
     id="metadata9412">
    <rdf:RDF>
      <cc:Work
         rdf:about="">
        <dc:format>image/svg+xml</dc:format>
        <dc:type
           rdf:resource="http://purl.org/dc/dcmitype/StillImage" />
        <dc:title></dc:title>
      </cc:Work>
    </rdf:RDF>
  </metadata>
  <sodipodi:namedview
     pagecolor="#ffffff"
     bordercolor="#666666"
     borderopacity="1"
     objecttolerance="10"
     gridtolerance="10"
     guidetolerance="10"
     inkscape:pageopacity="0"
     inkscape:pageshadow="2"
     inkscape:window-width="1440"
     inkscape:window-height="878"
     id="namedview9410"
     showgrid="false"
     inkscape:zoom="2.726671"
     inkscape:cx="100.17457"
     inkscape:cy="62.190539"
     inkscape:window-x="1272"
     inkscape:window-y="-8"
     inkscape:window-maximized="1"
     inkscape:current-layer="svg2"
     fit-margin-top="1"
     fit-margin-left="1"
     fit-margin-bottom="1"
     fit-margin-right="0" />
  <defs
     id="defs4" />
  <g
     id="g17707"
     transform="matrix(2.5736218,0,0,2.5736218,-2682.4231,-1718.9333)">
    <path
       style="fill:#02070c;fill-opacity:1;fill-rule:nonzero;stroke:none"
       d="m 1042.6641,718.32812 0,8.57422 1.5976,0 0,-3.74609 3.5,0 0,-1.34766 -3.5,0 0,-2.13672 3.8711,0 0,-1.34375 z"
       id="path7464"
       inkscape:connector-curvature="0" />
    <path
       inkscape:connector-curvature="0"
       id="path7468"
       d="m 1049.0664,721.08594 c 0,-1.82422 1.5899,-2.94532 3.3359,-2.94532 1.7774,0 3.3555,1.1211 3.3555,2.94532 l 0,3.01953 c 0,1.8164 -1.5703,2.98047 -3.3555,2.98047 -1.7695,0 -3.3359,-1.16407 -3.3359,-2.98047 z m 5.1016,0 c 0,-1.03907 -0.8203,-1.59375 -1.7657,-1.59375 -0.9335,0 -1.7539,0.55468 -1.7539,1.59375 l 0,3.01953 c 0,1.04297 0.8125,1.63672 1.7539,1.63672 0.9532,0 1.7657,-0.59375 1.7657,-1.63672 z"
       style="clip-rule:nonzero;fill:#02070c;fill-opacity:1;fill-rule:nonzero;stroke:none" />
    <path
       inkscape:connector-curvature="0"
       id="path7470"
       d="m 1060.75,718.32812 c 1.9297,0 2.7852,1.17969 2.7852,2.72266 0,1.21094 -0.5586,2.17188 -1.7813,2.49219 l 2.1367,3.35937 -1.789,0 -1.9649,-3.13672 -1.4258,0 0,3.13672 -1.5976,0 0,-8.57422 z m -2.0391,4.09375 2.0391,0 c 0.8242,0 1.1875,-0.54296 1.1875,-1.37109 0,-0.83203 -0.3633,-1.37891 -1.1875,-1.37891 l -2.0391,0 z"
       style="clip-rule:nonzero;fill:#02070c;fill-opacity:1;fill-rule:nonzero;stroke:none" />
    <path
       inkscape:connector-curvature="0"
       id="path7472"
       d="m 1072.3242,719.67187 0,7.23047 -1.5976,0 0,-7.23047 -2.3672,0 0,-1.34375 6.3086,0 0,1.34375 z"
       style="clip-rule:nonzero;fill:#02070c;fill-opacity:1;fill-rule:nonzero;stroke:none" />
    <path
       inkscape:connector-curvature="0"
       id="path7474"
       d="m 1080.8516,726.90234 0,-3.74609 -3.4297,0 0,3.74609 -1.5938,0 0,-8.57031 1.5938,0 0,3.47656 3.4297,0 0,-3.47656 1.5976,0 0,8.57031 z"
       style="clip-rule:nonzero;fill:#02070c;fill-opacity:1;fill-rule:nonzero;stroke:none" />
    <path
       inkscape:connector-curvature="0"
       id="path7476"
       d="m 1085.6875,719.67187 0,2.13282 3.7188,0 0,1.35156 -3.7188,0 0,2.40234 4.1992,0 0,1.34375 -5.7969,0 0,-8.57422 5.6836,0 0,1.34375 z"
       style="clip-rule:nonzero;fill:#02070c;fill-opacity:1;fill-rule:nonzero;stroke:none" />
    <path
       inkscape:connector-curvature="0"
       id="path7478"
       d="m 1098.4336,718.32812 c 1.9336,0 2.7891,1.17969 2.7891,2.72266 0,1.21094 -0.5625,2.17188 -1.7852,2.49219 l 2.1367,3.35937 -1.7851,0 -1.9649,-3.13672 -1.4258,0 0,3.13672 -1.5976,0 0,-8.57422 z m -2.0352,4.09375 2.0352,0 c 0.8281,0 1.1875,-0.54296 1.1875,-1.37109 0,-0.83203 -0.3594,-1.37891 -1.1875,-1.37891 l -2.0352,0 z"
       style="clip-rule:nonzero;fill:#02070c;fill-opacity:1;fill-rule:nonzero;stroke:none" />
    <path
       inkscape:connector-curvature="0"
       id="path7480"
       d="m 1102.8477,726.90625 1.6015,0 0,-8.57422 -1.6015,0 z"
       style="clip-rule:nonzero;fill:#02070c;fill-opacity:1;fill-rule:nonzero;stroke:none" />
    <path
       inkscape:connector-curvature="0"
       id="path7482"
       d="m 1109.2578,718.32812 c 1.7539,0 3.3516,1.11719 3.3516,2.94141 l 0,2.66016 c 0,1.80859 -1.5742,2.97265 -3.3516,2.97265 l -3.1601,0 0,-8.57422 z m -1.5664,7.23047 1.5664,0 c 0.9453,0 1.7578,-0.58593 1.7578,-1.6289 l 0,-2.66016 c 0,-1.04297 -0.8125,-1.59766 -1.7578,-1.59766 l -1.5664,0 z"
       style="clip-rule:nonzero;fill:#02070c;fill-opacity:1;fill-rule:nonzero;stroke:none" />
    <path
       inkscape:connector-curvature="0"
       id="path7484"
       d="m 1115.5508,719.67187 0,2.13282 3.7187,0 0,1.35156 -3.7187,0 0,2.40234 4.2031,0 0,1.34375 -5.8008,0 0,-8.57422 5.6875,0 0,1.34375 z"
       style="clip-rule:nonzero;fill:#02070c;fill-opacity:1;fill-rule:nonzero;stroke:none" />
    <path
       inkscape:connector-curvature="0"
       id="path7486"
       d="m 1081.2109,712.70703 c 0.3829,0 0.75,-0.0508 1.086,-0.15234 0.3554,-0.10157 0.6875,-0.26563 0.9922,-0.48047 0.2968,-0.20703 0.5664,-0.45703 0.8281,-0.77344 0.2422,-0.28906 0.4687,-0.61719 0.6953,-1.01172 0,0 20.3984,-35.5625 20.5703,-35.8789 0.1719,-0.3125 0.3164,-0.63672 0.4258,-0.96094 0.1094,-0.33203 0.1914,-0.66016 0.2344,-0.98438 0.047,-0.33593 0.055,-0.66406 0.023,-0.98047 -0.012,-0.16796 -0.082,-0.67968 -0.3008,-1.14843 -0.2148,-0.45313 -0.457,-0.74219 -0.7656,-1.03125 -0.3086,-0.28907 -0.8633,-0.60157 -1.332,-0.75391 -0.2578,-0.0859 -0.5547,-0.15625 -0.8711,-0.19922 -0.2891,-0.0391 -0.6094,-0.0586 -0.9766,-0.0586 l -41.2187,0 c -0.3672,0 -0.6914,0.0195 -0.9805,0.0586 -0.3086,0.043 -0.6133,0.11328 -0.8711,0.19922 -0.4648,0.15234 -1.0195,0.46484 -1.3281,0.75391 -0.3086,0.28906 -0.5508,0.57812 -0.7656,1.03125 -0.2188,0.46875 -0.2891,0.98047 -0.3047,1.14843 -0.031,0.31641 -0.024,0.64454 0.023,0.98047 0.047,0.32422 0.125,0.65235 0.2383,0.98438 0.1094,0.32422 0.2539,0.64844 0.4258,0.96094 0.1679,0.3164 20.5703,35.8789 20.5703,35.8789 0.2226,0.39453 0.4531,0.72266 0.6914,1.01172 0.2617,0.31641 0.5312,0.56641 0.8281,0.77344 0.3086,0.21484 0.6406,0.3789 0.9922,0.48047 0.3359,0.10156 0.7031,0.15234 1.0898,0.15234"
       style="clip-rule:nonzero;fill:#ffffff;fill-opacity:1;fill-rule:nonzero;stroke:none" />
    <path
       inkscape:connector-curvature="0"
       id="path7488"
       d="m 1060.6016,669.26172 c -0.6446,0 -1.1211,0.0625 -1.5391,0.20312 -0.793,0.26953 -1.3281,0.75 -1.5898,1.42578 -0.3282,0.84375 -0.1719,1.98829 0.414,3.05469 l 20.5625,35.86328 c 0.7735,1.35547 1.6016,1.9336 2.7617,1.9336 1.1602,0 1.9844,-0.57813 2.7579,-1.9336 l 20.5664,-35.86328 c 0.5859,-1.0664 0.7421,-2.21094 0.414,-3.05469 -0.2617,-0.67578 -0.7969,-1.15625 -1.5898,-1.42578 -0.4219,-0.14062 -0.8946,-0.20312 -1.5391,-0.20312 z"
       style="clip-rule:nonzero;fill:#02070c;fill-opacity:1;fill-rule:nonzero;stroke:none" />
    <path
       inkscape:connector-curvature="0"
       id="path7490"
       d="m 1098.6719,680.76953 -1.4063,2.44922 -7.8593,0 6.0468,3.16016 -0.9218,1.60546 -5.125,-2.82421 0,11.76953 -2.4493,4.26953 0,-20.42969 z"
       style="clip-rule:nonzero;fill:#ffffff;fill-opacity:1;fill-rule:nonzero;stroke:none" />
    <path
       inkscape:connector-curvature="0"
       id="path7492"
       d="m 1063.7461,680.76953 1.4062,2.44922 7.8633,0 -6.0508,3.16016 0.9219,1.60546 5.1289,-2.82421 0,11.76953 2.4492,4.26953 0,-20.42969 z"
       style="clip-rule:nonzero;fill:#ffffff;fill-opacity:1;fill-rule:nonzero;stroke:none" />
    <path
       inkscape:connector-curvature="0"
       id="path7494"
       d="m 1086.6484,676.53125 0,-4.46484 -0.789,0 c -0.2969,0 -0.4024,0.14453 -0.5899,0.41406 l -1.2226,1.72656 -1.3555,-2.14062 -0.8516,0 c -0.2851,0 -0.3242,0.25781 -0.3242,0.41015 l 0,4.05469 0.9766,0 0,-2.9375 1.3203,1.97656 0.4141,0 1.3828,-1.96875 0,2.92969 z"
       style="clip-rule:nonzero;fill:#ffffff;fill-opacity:1;fill-rule:nonzero;stroke:none" />
    <path
       inkscape:connector-curvature="0"
       id="path7496"
       d="m 1088.8008,675.15625 c 0.1562,0 0.7109,-0.0156 1.2305,-0.24609 0.6679,-0.29297 1.0078,-0.8086 1.0078,-1.52735 0,-0.39453 -0.1602,-1.3164 -1.6328,-1.3164 l -1.5313,0 c -0.2852,0 -0.3281,0.25781 -0.3281,0.41015 l 0,4.05469 1.1875,0 0,-1.375 z m -0.066,-0.74219 0,-1.60547 0.4062,0 c 0.7461,0 0.8594,0.44141 0.8594,0.70313 0,0.86328 -1,0.90625 -1.1992,0.90625 -0.024,0 -0.035,-0.004 -0.035,-0.004 z"
       style="clip-rule:nonzero;fill:#ffffff;fill-opacity:1;fill-rule:nonzero;stroke:none" />
    <path
       inkscape:connector-curvature="0"
       id="path7498"
       d="m 1080.6133,672.06641 -0.8594,0 c -0.2851,0 -0.3281,0.25781 -0.3281,0.41015 l 0,2.40625 c 0,0.80469 -0.4336,0.97656 -0.7969,0.97656 -0.3633,0 -0.8008,-0.17187 -0.8008,-0.97656 l 0,-2.8164 -0.8633,0 c -0.2812,0 -0.3242,0.25781 -0.3242,0.41015 l 0,2.4961 c 0,0.78515 0.3438,1.72265 1.9883,1.72265 1.6406,0 1.9844,-0.9375 1.9844,-1.72265 z"
       style="clip-rule:nonzero;fill:#ffffff;fill-opacity:1;fill-rule:nonzero;stroke:none" />
    <path
       inkscape:connector-curvature="0"
       id="path7500"
       d="m 1074.5547,676.53516 1.1836,0 0,-4.46875 -0.8594,0 c -0.2812,0 -0.3242,0.25781 -0.3242,0.41015 z"
       style="clip-rule:nonzero;fill:#ffffff;fill-opacity:1;fill-rule:nonzero;stroke:none" />
    <path
       inkscape:connector-curvature="0"
       id="path7502"
       d="m 1095.9336,676.53125 0,-4.46484 -0.8594,0 c -0.2851,0 -0.3281,0.25781 -0.3281,0.41015 l 0,0.7461 -0.023,0.004 c -0.5469,0.10547 -1.1016,0.31641 -1.6954,0.64453 l -0.043,0.0274 0,-1.83203 -0.8633,0 c -0.2813,0 -0.3242,0.25781 -0.3242,0.41015 l 0,2.21485 -0.012,0.008 c -0.1836,0.13672 -0.3555,0.27344 -0.5039,0.39062 l -0.039,0.0312 c -3.0742,2.41407 -6.1406,3.50391 -9.9375,3.52735 -0.039,0 -0.078,0 -0.1172,0 -1.75,0.004 -3.4297,-0.28907 -4.8555,-0.83985 -1.6601,-0.64062 -2.914,-1.59375 -3.7304,-2.83984 l -0.02,-0.0312 0.035,-0.0117 c 0.6875,-0.29297 1.0391,-0.8125 1.0391,-1.54297 0,-0.39453 -0.1602,-1.3164 -1.6329,-1.3164 l -1.5312,0 c -0.2852,0 -0.3281,0.25781 -0.3281,0.41015 l 0,4.05469 1.2031,0 0,-1.375 0.031,0 c 0,0 0.024,0 0.07,0 l 0.016,0 0.01,0.008 c 1.5625,1.875 4.5351,4.10938 9.8125,4.10938 3.9492,0 7.1719,-1.10157 10.4453,-3.57813 l 0.047,-0.0351 0,0.87109 1.1875,0 0,-1.73438 0.012,-0.0117 c 0.6367,-0.41016 1.1797,-0.63672 1.7148,-0.71875 l 0.035,-0.004 0,2.46875 z m -24.5039,-2.11719 c -0.023,0 -0.035,0 -0.035,0 l -0.027,0 0,-1.60547 0.3906,0 c 0.7461,0 0.8594,0.44141 0.8594,0.70313 0,0.85937 -0.9883,0.90234 -1.1875,0.90234"
       style="clip-rule:nonzero;fill:#ffffff;fill-opacity:1;fill-rule:nonzero;stroke:none" />
    <path
       inkscape:connector-curvature="0"
       id="path7504"
       d="m 1069.625,672.06641 -3.7148,0 c -0.2618,0 -0.3164,0.22265 -0.3164,0.41015 l 0,0.65235 1.414,0 0,3.40625 1.1953,0 0,-3.40625 1.0977,0 c 0.2812,0 0.3242,-0.25782 0.3242,-0.41016 z"
       style="clip-rule:nonzero;fill:#ffffff;fill-opacity:1;fill-rule:nonzero;stroke:none" />
  </g>
</svg>
